<svg height="496pt" viewBox="-80 0 496 496.00002" width="496pt" xmlns="http://www.w3.org/2000/svg" fill="white" ><path d="m328 104v-24c-.050781-.390625-.128906-.78125-.230469-1.160156-.046875-1.171875-.476562-2.296875-1.226562-3.199219-.164063-.339844-.351563-.664063-.566407-.976563l-64-72c-1.523437-1.699218-3.695312-2.66796825-5.976562-2.664062h-176c-2.28125 0-4.457031.976562-5.976562 2.679688l-64 72c-.214844.3125-.40625.640624-.566407.984374-.351562.46875-.652343.976563-.890625 1.511719-.171875.542969-.28125 1.105469-.335937 1.671875-.105469.378906-.183594.761719-.230469 1.152344v24c-4.417969 0-8 3.582031-8 8v40c0 4.417969 3.582031 8 8 8h9.222656l54.890625 329.320312c.644531 3.855469 3.980469 6.679688 7.886719 6.679688h176c3.90625 0 7.242188-2.824219 7.886719-6.679688l54.890625-329.320312h9.222656c4.417969 0 8-3.582031 8-8v-40c0-4.417969-3.582031-8-8-8zm-244.40625-88h168.796875l49.777344 56h-268.351563zm-59.59375 72h288v16h-288zm225.222656 392h-162.445312l-53.335938-320h269.117188zm70.777344-336h-304v-24h304zm0 0"/><path d="m107.113281 464h20.222657c4.417968 0 8-3.582031 8-8s-3.582032-8-8-8h-13.449219l-5.550781-33.320312c-.726563-4.359376-4.847657-7.300782-9.207032-6.574219-4.359375.726562-7.304687 4.847656-6.578125 9.207031l6.664063 40c.644531 3.859375 3.984375 6.691406 7.898437 6.6875zm0 0"/></svg>